<svg width="903" height="221" viewBox="0 0 903 221" fill="none" xmlns="http://www.w3.org/2000/svg">
<path fill-rule="evenodd" clip-rule="evenodd" d="M901.566 0C881.532 27.7417 850.416 46.9515 814.707 51.1406V52.1475C851.001 47.9243 882.597 28.3085 902.797 0H901.566ZM81.7071 52.8128V53.8228C41.2934 59.532 10.2071 94.2607 10.2071 136.25C10.2071 137.735 10.246 139.211 10.3228 140.677L19 132L19.7071 132.707L10.4033 142.011C13.3622 185.301 49.4159 219.5 93.4571 219.5V220.5C48.8987 220.5 12.4195 185.909 9.40808 142.115L0 132.707L0.707108 132L9.31803 140.611C9.24438 139.167 9.20711 137.713 9.20711 136.25C9.20711 93.7074 40.7392 58.5296 81.7071 52.8128ZM91.6821 53.5H88.7071V52.5H91.6821V53.5ZM103.582 53.5H97.6321L97.6321 52.5H103.582V53.5ZM115.482 53.5H109.532V52.5H115.482V53.5ZM127.382 53.5H121.432V52.5H127.382L127.382 53.5ZM139.282 53.5H133.332V52.5H139.282V53.5ZM151.182 53.5H145.232V52.5H151.182V53.5ZM163.082 53.5H157.132V52.5H163.082V53.5ZM174.982 53.5H169.032V52.5H174.982V53.5ZM186.882 53.5H180.932V52.5H186.882V53.5ZM198.782 53.5H192.832V52.5H198.782V53.5ZM210.682 53.5H204.732V52.5H210.682V53.5ZM222.582 53.5H216.632V52.5H222.582V53.5ZM234.482 53.5H228.532V52.5H234.482V53.5ZM246.382 53.5H240.432V52.5H246.382V53.5ZM258.282 53.5H252.332V52.5H258.282V53.5ZM270.182 53.5H264.232L264.232 52.5H270.182L270.182 53.5ZM282.082 53.5H276.132V52.5H282.082V53.5ZM293.982 53.5H288.032L288.032 52.5H293.982V53.5ZM305.882 53.5H299.932V52.5H305.882V53.5ZM317.782 53.5H311.832L311.832 52.5H317.782L317.782 53.5ZM329.682 53.5H323.732V52.5H329.682V53.5ZM341.582 53.5H335.632L335.632 52.5H341.582V53.5ZM353.482 53.5H347.532V52.5H353.482V53.5ZM365.382 53.5H359.432V52.5H365.382V53.5ZM377.282 53.5H371.332V52.5H377.282V53.5ZM389.182 53.5H383.232V52.5H389.182V53.5ZM401.082 53.5H395.132V52.5H401.082V53.5ZM412.982 53.5H407.032V52.5H412.982V53.5ZM424.882 53.5H418.932V52.5H424.882V53.5ZM436.782 53.5H430.832V52.5H436.782V53.5ZM448.682 53.5H442.732V52.5H448.682V53.5ZM460.582 53.5H454.632V52.5H460.582V53.5ZM472.482 53.5H466.532V52.5H472.482V53.5ZM484.382 53.5H478.432V52.5H484.382V53.5ZM496.282 53.5H490.332V52.5H496.282V53.5ZM508.182 53.5H502.232V52.5H508.182V53.5ZM520.082 53.5H514.132V52.5H520.082L520.082 53.5ZM531.982 53.5H526.032V52.5H531.982L531.982 53.5ZM543.882 53.5H537.932V52.5H543.882L543.882 53.5ZM555.782 53.5H549.832V52.5H555.782V53.5ZM567.682 53.5H561.732V52.5H567.682V53.5ZM579.582 53.5H573.632V52.5H579.583L579.582 53.5ZM591.482 53.5H585.533V52.5H591.483L591.482 53.5ZM603.383 53.5H597.433V52.5H603.383V53.5ZM615.283 53.5001L609.333 53.5V52.5L615.283 52.5001V53.5001ZM627.183 53.5001H621.233V52.5001H627.183V53.5001ZM639.083 53.5001H633.133V52.5001H639.083V53.5001ZM650.983 53.5001H645.033V52.5001H650.983V53.5001ZM662.883 53.5001H656.933V52.5001H662.883V53.5001ZM674.783 53.5001H668.833V52.5001H674.783V53.5001ZM686.683 53.5001H680.733V52.5001H686.683V53.5001ZM698.583 53.5001H692.633V52.5001H698.583V53.5001ZM710.483 53.5001H704.533V52.5001H710.483V53.5001ZM722.383 53.5001H716.433V52.5001H722.383V53.5001ZM734.283 53.5001H728.333V52.5001H734.283V53.5001ZM746.183 53.5001H740.233V52.5001H746.183V53.5001ZM758.083 53.5001H752.133V52.5001H758.083V53.5001ZM769.983 53.5001H764.033V52.5001H769.983V53.5001ZM781.883 53.5001H775.933V52.5001H781.883V53.5001ZM793.783 53.5001H787.833V52.5001H793.783V53.5001ZM802.707 53.5001H799.733V52.5001H802.707V53.5001Z" fill="url(#paint0_linear_568_651)"/>
<defs>
<linearGradient id="paint0_linear_568_651" x1="0" y1="0" x2="902.797" y2="-4.93313e-06" gradientUnits="userSpaceOnUse">
<stop stop-color="#C28E21"/>
<stop offset="1" stop-color="#F1CA67"/>
</linearGradient>
</defs>
</svg>
