<svg width="807" height="241" viewBox="0 0 807 241" fill="none" xmlns="http://www.w3.org/2000/svg">
<g clip-path="url(#clip0_203_284)">
<path d="M407.256 94.372C406.561 95.2772 405.587 95.5557 403.431 94.8594C398.214 96.5304 390.841 98.2711 383.398 99.594C390.215 107.601 402.596 111.221 414.977 112.823V113.937C410.664 115.26 407.952 119.02 406.769 124.659C394.319 119.646 385.763 112.405 381.103 100.012C379.503 100.29 377.903 100.499 376.373 100.708C380.894 109.62 380.268 119.368 376.79 123.754C374.704 126.678 369.974 127.584 363.435 127.584C363.366 124.59 362.601 122.64 361.349 121.178C360.236 120.203 357.245 118.95 354.045 118.254V116.931C357.384 117.209 363.366 117.557 365.383 117.557C366.496 117.557 367.191 117.488 367.678 116.722C368.582 115.329 369.069 112.614 369.069 109.202C356.549 115.399 339.716 120.83 324.205 123.336L323.579 121.735C339.508 117.14 357.314 108.367 367.748 99.4547L367.261 97.9229C356.34 103.423 340.412 108.228 326.222 110.177L325.735 108.506C339.577 105.094 355.297 97.7837 363.783 90.5426L363.574 90.1249C353.628 94.0239 341.247 96.7393 328.796 98.1318L328.17 96.7393C338.673 94.0239 348.689 89.8464 356.132 85.3903H341.734L340.899 82.6053H380.338L385.554 76.0605H338.186C338.882 82.9534 336.099 87.7576 332.343 89.4286C328.935 91.03 324.553 89.8464 323.51 86.0169C322.536 82.3268 324.901 79.681 328.1 78.4277C331.509 76.896 334.917 72.7184 334.5 67.9142L335.821 67.8446C336.656 69.7245 337.212 71.5348 337.63 73.2754H400.161L406.074 67.4269L416.09 77.1745C415.255 78.01 414.281 78.1492 412.195 78.2885C408.786 80.7254 402.596 83.9978 398.353 85.8081L397.379 85.1814C398.283 82.7445 399.466 79.1936 400.509 76.1301H386.667C388.337 77.453 393.206 81.1431 396.405 83.8585C396.127 84.9726 395.084 85.4599 393.693 85.4599H373.452C371.226 86.7828 368.93 87.9665 366.357 89.1501C370.252 91.8655 373.243 95.2772 375.399 98.8977C382.842 94.9987 391.606 89.359 396.266 85.5296L407.256 94.372ZM324.831 44.8681H366.983L366.704 44.6592C366.078 40.6209 363.227 36.3041 360.723 34.1457L361.418 33.5191C379.016 32.4051 379.781 41.5261 374.843 44.8681H396.753L403.152 36.3738C403.152 36.3738 410.456 42.2223 414.838 46.191C414.56 47.305 413.516 47.7924 412.056 47.7924H325.666L324.831 44.8681ZM385.207 70.6993V67.4965H353.767V68.4016C353.767 69.3764 348.481 71.8133 343.751 71.8133H342.22V48.976L354.462 53.7106H384.302L389.519 48.2798L400.37 56.2171C399.883 56.9134 398.77 57.6096 397.031 58.0274V68.0535C396.962 68.7498 390.91 70.7689 387.293 70.7689H385.207V70.6993ZM385.207 64.5722V56.4956H353.767V64.6418H385.207V64.5722Z" fill="white"/>
<path d="M537.536 83.232L547.483 91.4478C546.648 92.3529 545.466 92.8403 543.379 93.1188C541.71 111.361 538.441 120.76 533.293 124.52C530.163 126.748 526.407 127.723 521.747 127.653C521.747 124.659 521.469 122.153 520.217 120.621C519.034 119.089 516.808 118.045 513.4 117.279L513.47 115.886C516.252 116.095 521.051 116.374 523.069 116.374C524.599 116.374 525.503 116.165 526.407 115.538C528.981 113.519 531.485 105.443 532.807 91.3782H530.233C523.834 107.949 511.174 119.925 491.072 127.653L490.099 126.121C504.705 117.906 514.165 105.791 519.034 91.3086H516.043C509.018 103.563 496.915 113.032 481.96 119.716L480.987 118.184C491.629 111.291 500.323 101.544 505.61 91.3086H502.271C496.846 96.9483 489.959 101.404 481.752 105.025L481.543 104.607C479.456 106.208 476.465 107.044 472.501 107.114C472.501 104.189 472.083 100.012 471.318 98.6889C470.692 97.5749 469.231 96.809 467.284 96.252V124.033C467.284 124.868 463.876 127.514 458.589 127.514H456.711V36.2346L468.605 40.8299H475.213L481.056 35.1902L491.768 45.4252C490.933 46.3303 489.542 46.6088 487.386 46.6088C483.978 52.5966 477.857 62.5531 472.988 68.5409C482.169 75.0858 486.342 84.2764 486.342 92.0744C486.342 95.2772 485.925 97.9926 485.021 100.29C490.933 94.7898 495.454 87.8273 498.376 80.6558H485.786L484.951 77.7315H531.694L537.328 70.0031C537.328 70.0031 543.936 75.2946 547.831 79.0544C547.553 80.1684 546.509 80.6558 545.118 80.6558H510.131C508.601 83.4409 506.931 86.0866 504.845 88.5932H532.111L537.536 83.232ZM471.805 95.2076C472.779 95.2076 473.405 95.138 474.1 94.7202C475.213 94.024 475.909 92.2137 475.909 89.2198C475.909 82.675 474.587 75.3643 470.414 68.9587C472.222 62.6227 474.587 51.413 476.048 43.6845H467.353V95.2076H471.805ZM502.967 71.883C502.967 72.7185 499.628 74.4591 494.342 74.4591H492.533V35.7472L503.94 40.1336H525.294L530.372 34.4243L540.319 41.8743C539.623 42.7794 538.719 43.406 536.632 43.7542V70.3512C536.632 70.769 533.015 72.7881 527.59 72.7881H525.712V68.9587H502.967V71.883ZM502.967 43.0579V53.1536H525.712V43.0579H502.967ZM525.712 66.0344V56.0779H502.967V66.0344H525.712Z" fill="white"/>
<path d="M619.683 76.1997C618.988 77.3138 618.083 77.5923 615.857 77.8708C614.327 88.1057 611.823 97.8534 606.815 106.557C617.736 112.475 632.69 113.798 653.418 113.798C658.635 113.798 670.738 113.798 677.068 113.728V114.912C672.477 115.886 670.251 119.994 669.973 124.729H652.514C629.282 124.729 613.562 122.292 602.503 112.614C597.773 118.463 591.513 123.615 582.887 127.584L582.192 126.4C589.217 121.178 594.225 114.703 597.494 107.322C592.904 101.195 589.287 92.9796 586.504 82.3268L587.617 81.7002C590.817 90.5426 594.851 96.809 599.929 101.544C602.711 93.7454 604.102 85.1815 604.937 76.4086H598.955L595.477 80.0292L585.67 73.6932C586.574 72.8577 587.896 72.0918 589.287 71.6044C592.904 64.9204 597.912 53.7802 600.624 46.748H584L583.096 43.8238H600.555L605.563 38.8107L615.579 47.8621C614.745 48.7672 613.145 49.2546 611.267 49.4634C608.554 55.6601 603.476 66.5218 599.859 73.554H604.241L609.736 67.8446L619.683 76.1997ZM670.251 49.9508C670.251 49.9508 675.746 55.4513 678.598 59.0022C678.32 60.1162 677.276 60.6036 676.024 60.6036H664.826V74.4591C664.756 75.2946 659.331 77.1745 655.714 77.1745H654.044V73.7628H645.141V83.9978H654.531L660.165 76.5479C660.165 76.5479 666.704 81.5609 670.46 85.1815C670.181 86.2955 669.277 86.7829 667.747 86.7829H645.002V97.2267H657.035L663.365 89.2894C663.365 89.2894 670.599 94.5809 674.981 98.48C674.703 99.594 673.59 100.081 672.199 100.081H645.071V109.411C645.071 110.316 640.481 112.405 636.029 112.405H633.803V100.081H613.353L612.519 97.1571H633.734V86.7132H617.875L617.04 83.9282H633.664V73.6932H619.057L618.153 70.7689H633.664V60.6036H611.614L610.78 57.6793H633.595V47.5836H617.944L617.04 44.7985H633.595V33.728L648.549 35.1205C648.341 36.6523 647.575 37.6271 644.863 38.0448V44.7289H652.792L657.8 39.2981L668.512 47.3051C667.886 48.0013 666.495 48.9064 664.617 49.3242V57.6793H665.312L670.251 49.9508ZM645.002 57.6793H653.905V47.5836H645.002V57.6793ZM653.905 60.6036H645.002V70.8386H653.905V60.6036Z" fill="white"/>
<path d="M736.052 45.8429C729.444 52.9447 721.445 57.6793 713.724 60.6732L712.611 59.5592C719.219 53.641 725.966 43.6845 729.722 32.614L744.538 38.4626C744.051 39.6462 742.729 40.4817 740.504 40.2728C739.808 41.2476 739.113 42.1527 738.417 43.0579H749.059L754.067 36.2346C754.067 36.2346 759.771 40.9691 763.179 44.2415C762.901 45.3555 761.997 45.8429 760.606 45.8429H736.052ZM713.655 123.963C723.74 118.323 733.757 108.993 738.626 101.613L751.424 109.759C750.937 110.664 749.894 111.152 747.599 110.664C740.156 116.861 727.497 122.57 714.42 125.216L713.655 123.963ZM739.739 64.7115V80.7254C744.329 80.0988 749.129 79.5418 754.067 78.8455L754.137 80.238C747.32 83.3712 737.304 87.4791 722.975 92.5618C722.349 93.8847 721.376 94.6506 720.263 94.9987L715.324 83.4408C718.245 83.2319 723.114 82.7446 728.957 82.0483V64.7115H717.967L717.133 61.7872H739.46L743.077 57.2615C742.799 57.1919 742.59 56.983 742.243 56.8438C741.408 53.7106 738.765 50.0205 736.33 48.2102L737.165 47.5139C752.815 46.1214 752.189 55.869 746.903 57.4704C748.92 59.0718 751.494 61.2998 753.441 63.1101C753.163 64.2241 752.259 64.7115 750.868 64.7115H739.739ZM794.271 89.1501C794.271 89.1501 801.575 95.0683 805.887 98.9674C805.609 100.081 804.496 100.569 803.174 100.569H766.24V124.52C766.24 125.425 760.814 127.444 755.945 127.444H753.859V100.569H717.411L716.576 97.6445H753.859V89.4983L769.996 90.8908C769.787 92.2137 769.022 93.3277 766.309 93.6758V97.5748H787.872L794.271 89.1501ZM803.244 79.0544C805.331 80.0292 805.818 81.0735 805.818 82.7446C805.818 86.1562 802.618 88.245 795.315 88.245H791.628C785.437 88.245 784.742 86.2258 784.742 80.7254V64.0152H773.335V68.1928C773.335 69.8638 773.126 71.6741 772.5 73.6932C782.516 78.01 781.195 86.7132 774.517 85.5992C772.987 83.9978 770.83 82.2572 768.326 80.5862C764.501 84.4852 757.893 88.1057 746.625 90.5426L745.929 89.359C755.041 85.5296 759.423 81.0039 761.44 76.6175C758.519 75.0161 755.598 73.6932 753.024 72.7881L753.719 71.6044C757.128 71.3259 760.258 71.3259 762.901 71.5348C762.971 70.4208 763.11 69.3068 763.11 68.1928V64.0152H755.667L754.763 61.2302H783.838L788.359 56.426L796.845 63.4582C796.219 64.1545 795.245 64.6419 793.506 64.99V78.4278C793.506 79.4025 793.715 79.7507 794.689 79.7507H796.288H797.68C798.166 79.7507 798.653 79.681 799.001 79.0544C799.627 78.1493 800.67 75.1554 801.714 71.9526H802.896L803.244 79.0544ZM796.984 35.956C796.984 35.956 803.314 40.7602 807 44.3111C806.722 45.4252 805.818 45.9125 804.427 45.9125H774.587C769.648 51.413 763.875 55.4513 757.962 58.0274L756.78 57.1223C761.51 51.413 765.962 42.292 768.466 32.6836L783.003 38.6018C782.516 39.7158 781.125 40.621 778.899 40.2728C778.273 41.178 777.578 42.0831 777.021 42.9883H791.558L796.984 35.956ZM770.691 104.329C809.087 104.607 807.07 128.767 794.41 125.007C789.194 117.975 778.273 109.69 769.996 105.234L770.691 104.329ZM775.908 47.9317C795.871 47.305 787.246 62.0657 779.108 56.3564C778.899 53.4321 777.021 50.1597 775.074 48.5583L775.908 47.9317Z" fill="white"/>
<path d="M358.845 181.404C358.775 185.582 358.775 189.759 358.775 194.076V196.165C358.775 200.343 358.775 204.659 358.845 208.837L362.809 209.185V210.647H349.037V209.185L352.863 208.837C352.932 204.659 352.932 200.412 352.932 195.538H340.134C340.134 200.343 340.134 204.659 340.273 208.837L344.098 209.185V210.647H330.326V209.185L334.291 208.837C334.36 204.659 334.36 200.482 334.36 196.165V194.076C334.36 189.899 334.36 185.651 334.291 181.474L330.326 181.056V179.524H344.098V181.056L340.273 181.404C340.134 185.512 340.134 189.69 340.134 193.867H352.932C352.932 189.69 352.932 185.512 352.863 181.404L349.037 181.056V179.524H362.809V181.056L358.845 181.404Z" fill="white"/>
<path d="M403.917 209.185V210.647H390.354V209.185L394.388 208.698L391.745 200.551H381.729L379.225 208.628L383.329 209.115V210.577H373.521V209.115L377.138 208.628L386.667 179.385H390.284L400.3 208.767L403.917 209.185ZM391.258 199.02L386.667 184.607L382.216 199.02H391.258Z" fill="white"/>
<path d="M442.382 195.051C442.382 205.564 435.566 211.413 427.915 211.413C420.263 211.413 413.447 205.773 413.447 195.051C413.447 184.537 420.333 178.759 427.915 178.759C435.566 178.759 442.382 184.468 442.382 195.051ZM427.915 209.742C433.549 209.742 436.192 203.267 436.192 195.121C436.192 187.044 433.549 180.499 427.915 180.499C422.281 180.499 419.707 187.044 419.707 195.121C419.707 203.267 422.35 209.742 427.915 209.742Z" fill="white"/>
<path d="M469.023 197.627C469.023 202.779 469.023 205.564 469.092 208.767L473.614 209.115V210.577H458.589V209.115L463.041 208.767C463.111 205.773 463.111 203.127 463.111 198.393L454.694 181.265L451.912 180.986V179.455H465.684V180.986L461.441 181.474L468.119 195.886L474.727 181.613L470.553 181.056V179.524H480.639V181.056L476.952 181.613L469.023 197.627Z" fill="white"/>
<path d="M515.556 209.185V210.647H501.993V209.185L506.027 208.698L503.384 200.551H493.368L490.864 208.628L494.967 209.115V210.577H485.16V209.115L488.777 208.628L498.306 179.385H501.923L511.939 208.767L515.556 209.185ZM502.966 199.02L498.376 184.607L493.924 199.02H502.966Z" fill="white"/>
<path d="M556.943 181.056L553.117 181.613L552.908 210.856H549.987L531.485 184.746L531.624 208.628L536.98 209.185V210.647H525.642V209.185L529.537 208.698L529.746 182.309L529.05 181.404L525.851 181.056V179.524H534.684L551.1 202.362L550.961 181.613L545.535 181.056V179.524H556.873V181.056H556.943Z" fill="white"/>
<path d="M597.216 197L594.434 197.349C594.365 200.273 594.365 203.336 594.365 206.609V208.698C591.165 210.577 588.104 211.483 584.209 211.483C574.541 211.483 568.072 205.077 568.072 195.121C568.072 185.234 574.749 178.828 584.418 178.828C588.104 178.828 590.956 179.594 593.53 181.126L593.46 188.367H590.956L589.217 181.404C587.965 180.778 586.644 180.499 585.183 180.499C578.923 180.499 574.263 185.443 574.263 195.121C574.263 204.242 578.714 209.742 584.905 209.742C586.296 209.742 587.478 209.603 588.73 209.255V206.539C588.73 203.476 588.661 200.551 588.591 197.557L584.001 197.07V195.608H597.147V197H597.216Z" fill="white"/>
<path d="M639.646 192.544C645.837 195.26 648.132 197.766 648.132 202.292C648.132 207.792 643.819 211.413 636.586 211.413C633.108 211.413 629.491 210.438 627.126 208.906L627.404 201.944H629.769L631.508 208.698C632.899 209.324 634.29 209.533 636.029 209.533C640.272 209.533 642.915 207.514 642.915 204.033C642.915 201.108 641.524 199.646 637.838 198.045L635.89 197.209C630.604 194.912 627.613 192.196 627.613 187.322C627.613 181.822 632.134 178.619 638.464 178.619C641.733 178.619 644.445 179.524 646.602 180.987L646.323 187.601H643.959L642.22 181.126C641.246 180.638 640.272 180.499 639.09 180.499C635.403 180.499 632.829 182.309 632.829 185.651C632.829 188.576 634.568 190.247 637.629 191.57L639.646 192.544Z" fill="white"/>
<path d="M675.12 181.265C675.051 185.443 675.051 189.759 675.051 194.076V196.165C675.051 200.342 675.051 204.59 675.12 208.837L679.572 209.185V210.647H664.617V209.185L669.069 208.837C669.138 204.659 669.138 200.482 669.138 196.165V194.076C669.138 189.829 669.138 185.512 669.069 181.265H662.6L660.861 188.158H658.496L658.774 179.455H685.345L685.623 188.158H683.258L681.519 181.265H675.12Z" fill="white"/>
<path d="M725.41 195.051C725.41 205.564 718.593 211.413 710.942 211.413C703.291 211.413 696.474 205.773 696.474 195.051C696.474 184.537 703.36 178.759 710.942 178.759C718.524 178.759 725.41 184.468 725.41 195.051ZM710.942 209.742C716.576 209.742 719.219 203.267 719.219 195.121C719.219 187.044 716.576 180.499 710.942 180.499C705.308 180.499 702.734 187.044 702.734 195.121C702.734 203.267 705.308 209.742 710.942 209.742Z" fill="white"/>
<path d="M767.7 181.056L763.875 181.613L763.666 210.856H760.745L742.242 184.746L742.382 208.628L747.737 209.185V210.647H736.4V209.185L740.295 208.698L740.504 182.309L739.808 181.404L736.608 181.056V179.524H745.442L761.858 202.362L761.718 181.613L756.293 181.056V179.524H767.631V181.056H767.7Z" fill="white"/>
<path d="M803.522 202.222L803.383 210.647H779.108V209.185L783.072 208.837C783.142 204.659 783.142 200.482 783.142 196.165V194.076C783.142 189.899 783.142 185.651 783.072 181.404L779.108 181.056V179.524H802.548L802.618 187.74H800.323L798.723 181.265H789.124C788.985 185.373 788.985 189.551 788.985 193.937H795.245L795.871 189.342H797.819V199.925H795.871L795.314 195.538H788.985C788.985 200.273 788.985 204.59 789.124 208.906H799.557L801.157 202.222H803.522Z" fill="white"/>
<path d="M14.8853 199.994C14.8853 199.994 62.3927 161.7 119.708 173.537C163.181 182.518 196.777 221.091 249.849 205.286C249.849 205.286 233.781 226.87 195.594 225.895C144.261 224.642 118.386 178.132 51.4027 219.35L14.8853 199.994Z" fill="white"/>
<path d="M154.903 227.079C154.903 227.079 108.37 197 61.7666 229.028L82.5641 241.004C82.5641 240.934 102.527 217.679 154.903 227.079Z" fill="white"/>
<path d="M110.804 65.7559L97.1711 18.2015L69.1396 26.6959L95.2235 72.0223C100.023 69.3068 105.309 67.1484 110.804 65.7559Z" fill="white"/>
<path d="M62.7404 127.793C62.7404 125.147 62.8795 122.571 63.2273 119.994L0 113.241L3.47785 142.414L63.3664 136.844C62.9491 133.85 62.7404 130.856 62.7404 127.793Z" fill="white"/>
<path d="M71.6437 95.2076L28.3792 71.2563L14.6069 97.0875L65.0357 110.734C66.566 105.234 68.7918 100.012 71.6437 95.2076Z" fill="white"/>
<path d="M126.733 63.7368C129.376 63.7368 131.95 63.876 134.523 64.2241L141.34 0.934326L112.195 4.41561L117.76 64.3634C120.681 63.9456 123.672 63.7368 126.733 63.7368Z" fill="white"/>
<path d="M190.725 127.792C190.725 130.438 190.586 133.014 190.238 135.591L253.466 142.344L249.988 113.171L190.099 118.741C190.516 121.735 190.725 124.729 190.725 127.792Z" fill="white"/>
<path d="M188.778 111.848L236.285 98.2015L227.799 70.1423L182.517 96.252C185.161 101.056 187.317 106.348 188.778 111.848Z" fill="white"/>
<path d="M87.3635 77.3137L47.4378 27.8098L29.2834 50.8559L75.6084 89.2894C78.9471 84.8333 82.9119 80.795 87.3635 77.3137Z" fill="white"/>
<path d="M183.213 29.3417L157.407 15.5558L143.774 66.0345C149.269 67.5662 154.486 69.7943 159.286 72.6489L183.213 29.3417Z" fill="white"/>
<path d="M177.162 88.3843L226.686 48.4191L203.593 30.2468L165.198 76.6176C169.719 79.9596 173.684 83.9283 177.162 88.3843Z" fill="white"/>
<path d="M182.448 160.586L227.73 186.696L236.216 158.637L188.708 144.99C187.317 150.49 185.161 155.712 182.448 160.586Z" fill="white"/>
<path d="M97.3102 157.314C105.796 157.314 114.282 158.149 122.559 159.89C134.384 162.327 145.235 166.644 155.738 171.378C169.58 162.048 178.622 146.243 178.622 128.28C178.622 99.5941 155.39 76.4087 126.802 76.4087C98.2145 76.4087 74.9824 99.6637 74.9824 128.28C74.9824 139.35 78.4603 149.585 84.3031 157.94C88.4765 157.592 92.8586 157.314 97.3102 157.314Z" fill="white"/>
<path d="M70.3916 159.403C68.0962 155.225 66.2878 150.769 65.0357 146.034L14.6069 159.751L23.3016 176.043C35.1262 169.707 51.4026 162.814 70.3916 159.403Z" fill="white"/>
<path d="M208.81 194.006L177.231 168.454C174.31 172.144 171.041 175.486 167.424 178.48C181.265 185.164 194.62 191.5 208.81 194.006Z" fill="white"/>
</g>
<defs>
<clipPath id="clip0_203_284">
<rect width="807" height="240" fill="white" transform="translate(0 0.934326)"/>
</clipPath>
</defs>
</svg>
