<svg width="800" height="238" viewBox="0 0 800 238" fill="none" xmlns="http://www.w3.org/2000/svg">
<g clip-path="url(#clip0_203_358)">
<path d="M403.724 92.6592C403.034 93.5568 402.069 93.833 399.931 93.1425C394.76 94.7996 387.451 96.5257 380.073 97.8376C386.83 105.778 399.104 109.368 411.377 110.956V112.061C407.102 113.373 404.413 117.101 403.241 122.694C390.898 117.723 382.417 110.542 377.797 98.2519C376.211 98.5281 374.625 98.7352 373.108 98.9423C377.59 107.78 376.97 117.447 373.522 121.796C371.453 124.696 366.764 125.594 360.283 125.594C360.214 122.625 359.455 120.692 358.214 119.242C357.111 118.275 354.146 117.032 350.974 116.342V115.03C354.284 115.306 360.214 115.651 362.214 115.651C363.317 115.651 364.006 115.582 364.489 114.823C365.385 113.442 365.868 110.749 365.868 107.366C353.456 113.511 336.77 118.896 321.393 121.382L320.772 119.794C336.563 115.237 354.215 106.537 364.558 97.6995L364.075 96.1805C353.25 101.635 337.459 106.399 323.393 108.333L322.91 106.675C336.632 103.292 352.215 96.0424 360.628 88.8617L360.421 88.4474C350.56 92.314 338.287 95.0067 325.944 96.3876L325.323 95.0067C335.735 92.314 345.665 88.1712 353.043 83.7523H338.769L337.942 80.9905H377.039L382.21 74.5002H335.253C335.942 81.3357 333.184 86.0999 329.461 87.757C326.082 89.345 321.738 88.1712 320.703 84.3737C319.738 80.7143 322.083 78.0906 325.254 76.8478C328.633 75.3288 332.012 71.186 331.598 66.4219L332.908 66.3528C333.736 68.2171 334.287 70.0122 334.701 71.7384H396.69L402.551 65.9386L412.481 75.6049C411.653 76.4335 410.688 76.5716 408.619 76.7097C405.241 79.1263 399.104 82.3714 394.898 84.1666L393.932 83.5452C394.829 81.1286 396.001 77.6073 397.035 74.5693H383.313C384.968 75.8811 389.795 79.5405 392.967 82.2333C392.691 83.338 391.657 83.8214 390.278 83.8214H370.212C368.006 85.1332 365.73 86.307 363.179 87.4808C367.04 90.1735 370.005 93.5568 372.143 97.1471C379.521 93.2806 388.209 87.6879 392.829 83.8904L403.724 92.6592ZM322.014 43.5678H363.799L363.524 43.3607C362.903 39.356 360.076 35.0752 357.594 32.9348L358.283 32.3134C375.728 31.2087 376.487 40.2536 371.591 43.5678H393.312L399.655 35.1442C399.655 35.1442 406.896 40.9441 411.24 44.8797C410.964 45.9844 409.929 46.4677 408.481 46.4677H322.841L322.014 43.5678ZM381.865 69.1837V66.0076H350.698V66.9052C350.698 67.8718 345.458 70.2884 340.769 70.2884H339.252V47.6415L351.388 52.3366H380.969L386.14 46.951L396.897 54.8222C396.415 55.5127 395.311 56.2031 393.587 56.6174V66.56C393.518 67.2504 387.52 69.2527 383.934 69.2527H381.865V69.1837ZM381.865 63.1077V55.0984H350.698V63.1767H381.865V63.1077Z" fill="#0D1F35"/>
<path d="M532.874 81.6119L542.734 89.7592C541.907 90.6568 540.735 91.1401 538.666 91.4163C537.011 109.506 533.77 118.827 528.668 122.556C525.565 124.765 521.841 125.732 517.221 125.663C517.221 122.694 516.946 120.208 515.704 118.689C514.532 117.17 512.326 116.135 508.947 115.375L509.016 113.994C511.774 114.201 516.532 114.478 518.532 114.478C520.049 114.478 520.945 114.27 521.841 113.649C524.393 111.647 526.875 103.637 528.185 89.6902H525.634C519.29 106.123 506.74 117.999 486.813 125.663L485.847 124.144C500.328 115.997 509.705 103.983 514.532 89.6211H511.567C504.603 101.773 492.605 111.163 477.78 117.792L476.815 116.273C487.364 109.437 495.984 99.7708 501.224 89.6211H497.914C492.536 95.2138 485.71 99.6328 477.573 103.223L477.366 102.809C475.298 104.397 472.333 105.225 468.402 105.294C468.402 102.395 467.989 98.2518 467.23 96.94C466.609 95.8352 465.161 95.0757 463.231 94.5234V122.073C463.231 122.901 459.852 125.525 454.612 125.525H452.75V35.0061L464.541 39.5631H471.091L476.884 33.9704L487.502 44.1201C486.675 45.0177 485.296 45.2939 483.158 45.2939C479.78 51.2318 473.712 61.1053 468.885 67.0433C477.987 73.5335 482.124 82.6475 482.124 90.3806C482.124 93.5567 481.71 96.2495 480.814 98.528C486.675 93.0734 491.157 86.1689 494.053 79.0572H481.572L480.745 76.1573H527.082L532.667 68.4932C532.667 68.4932 539.218 73.7407 543.079 77.4691C542.803 78.5739 541.769 79.0572 540.39 79.0572H505.706C504.189 81.819 502.534 84.4427 500.466 86.9284H527.496L532.874 81.6119ZM467.713 93.4877C468.678 93.4877 469.299 93.4187 469.988 93.0044C471.091 92.3139 471.781 90.5187 471.781 87.5498C471.781 81.0595 470.471 73.8097 466.334 67.4575C468.126 61.1744 470.471 50.0581 471.919 42.394H463.3V93.4877H467.713ZM498.604 70.3574C498.604 71.186 495.294 72.9121 490.054 72.9121H488.261V34.5228L499.569 38.8727H520.738L525.772 33.2109L535.632 40.5988C534.942 41.4964 534.046 42.1178 531.977 42.463V68.8384C531.977 69.2527 528.392 71.255 523.014 71.255H521.152V67.4575H498.604V70.3574ZM498.604 41.7726V51.7842H521.152V41.7726H498.604ZM521.152 64.5576V54.6841H498.604V64.5576H521.152Z" fill="#0D1F35"/>
<path d="M614.308 74.6383C613.619 75.743 612.722 76.0192 610.516 76.2954C608.999 86.4451 606.516 96.1115 601.552 104.742C612.377 110.611 627.202 111.923 647.751 111.923C652.922 111.923 664.92 111.923 671.195 111.854V113.028C666.644 113.994 664.437 118.068 664.162 122.763H646.854C623.824 122.763 608.24 120.346 597.277 110.749C592.588 116.549 586.382 121.658 577.832 125.594L577.142 124.42C584.106 119.242 589.071 112.82 592.312 105.502C587.761 99.4256 584.175 91.2783 581.417 80.7143L582.52 80.0929C585.692 88.8617 589.692 95.0758 594.725 99.7709C597.483 92.0378 598.862 83.5452 599.69 74.8454H593.76L590.312 78.4358L580.59 72.1527C581.486 71.3241 582.796 70.5646 584.175 70.0813C587.761 63.4529 592.726 52.4056 595.415 45.432H578.935L578.038 42.5321H595.346L600.31 37.5608L610.24 46.5368C609.412 47.4343 607.826 47.9177 605.965 48.1248C603.276 54.2699 598.242 65.041 594.656 72.0146H599L604.448 66.3528L614.308 74.6383ZM664.437 48.6081C664.437 48.6081 669.885 54.0627 672.712 57.584C672.436 58.6888 671.402 59.1721 670.161 59.1721H659.059V72.9122C658.99 73.7407 653.612 75.6049 650.026 75.6049H648.371V72.2217H639.545V82.3714H648.854L654.439 74.9835C654.439 74.9835 660.921 79.9548 664.644 83.5452C664.368 84.6499 663.472 85.1332 661.955 85.1332H639.407V95.49H651.336L657.611 87.6189C657.611 87.6189 664.782 92.8663 669.126 96.7329C668.85 97.8376 667.747 98.3209 666.368 98.3209H639.476V107.573C639.476 108.471 634.925 110.542 630.512 110.542H628.306V98.3209H608.033L607.206 95.421H628.237V85.0642H612.515L611.688 82.3023H628.168V72.1527H613.688L612.791 69.2527H628.168V59.1721H606.309L605.482 56.2722H628.099V46.2606H612.584L611.688 43.4988H628.099V32.5205L642.924 33.9014C642.717 35.4204 641.958 36.3871 639.269 36.8013V43.4297H647.13L652.095 38.0442L662.714 45.9844C662.093 46.6748 660.714 47.5724 658.852 47.9867V56.2722H659.542L664.437 48.6081ZM639.407 56.2722H648.233V46.2606H639.407V56.2722ZM648.233 59.1721H639.407V69.3218H648.233V59.1721Z" fill="#0D1F35"/>
<path d="M729.668 44.5344C723.117 51.5771 715.187 56.2722 707.533 59.2411L706.43 58.1364C712.981 52.2675 719.669 42.394 723.393 31.4158L738.08 37.2156C737.597 38.3894 736.287 39.2179 734.081 39.0108C733.391 39.9774 732.701 40.875 732.012 41.7726H742.562L747.527 35.0061C747.527 35.0061 753.181 39.7012 756.559 42.9464C756.284 44.0511 755.387 44.5344 754.008 44.5344H729.668ZM707.464 122.004C717.463 116.411 727.392 107.159 732.219 99.8399L744.906 107.918C744.424 108.816 743.389 109.299 741.114 108.816C733.736 114.961 721.186 120.623 708.223 123.246L707.464 122.004ZM733.322 63.2458V79.1262C737.873 78.5048 742.631 77.9525 747.527 77.262L747.595 78.6429C740.838 81.75 730.909 85.8237 716.704 90.864C716.084 92.1759 715.118 92.9354 714.015 93.2806L709.119 81.819C712.015 81.6119 716.842 81.1286 722.634 80.4381V63.2458H711.74L710.912 60.3459H733.046L736.632 55.8579C736.356 55.7888 736.149 55.5817 735.804 55.4436C734.977 52.3366 732.357 48.6772 729.943 46.882L730.771 46.1915C746.285 44.8106 745.665 54.477 740.424 56.065C742.424 57.6531 744.975 59.8625 746.906 61.6577C746.63 62.7625 745.734 63.2458 744.355 63.2458H733.322ZM787.382 87.4808C787.382 87.4808 794.622 93.3496 798.897 97.2162C798.621 98.3209 797.518 98.8042 796.208 98.8042H759.593V122.556C759.593 123.453 754.215 125.456 749.388 125.456H747.32V98.8042H711.188L710.36 95.9043H747.32V87.826L763.317 89.2069C763.11 90.5188 762.352 91.6235 759.662 91.9687V95.8353H781.038L787.382 87.4808ZM796.277 77.4691C798.345 78.4358 798.828 79.4715 798.828 81.1286C798.828 84.5118 795.656 86.5832 788.416 86.5832H784.761C778.625 86.5832 777.935 84.5808 777.935 79.1262V62.5553H766.627V66.698C766.627 68.3551 766.42 70.1503 765.799 72.1526C775.729 76.4335 774.418 85.0642 767.799 83.9594C766.282 82.3714 764.144 80.6452 761.662 78.9882C757.87 82.8547 751.319 86.4451 740.149 88.8617L739.459 87.6879C748.492 83.8904 752.836 79.4024 754.836 75.0526C751.94 73.4645 749.044 72.1526 746.492 71.255L747.182 70.0813C750.56 69.8051 753.663 69.8051 756.284 70.0122C756.353 68.9075 756.49 67.8028 756.49 66.698V62.5553H749.112L748.216 59.7935H777.039L781.521 55.0293L789.933 62.0029C789.312 62.6934 788.347 63.1767 786.623 63.5219V76.8477C786.623 77.8144 786.83 78.1596 787.795 78.1596H789.381H790.761C791.243 78.1596 791.726 78.0906 792.071 77.4691C792.691 76.5716 793.725 73.6026 794.76 70.4265H795.932L796.277 77.4691ZM790.071 34.73C790.071 34.73 796.346 39.4941 800 43.0154C799.724 44.1202 798.828 44.6035 797.449 44.6035H767.868C762.972 50.0581 757.249 54.0627 751.388 56.6174L750.216 55.7198C754.905 50.0581 759.318 41.0131 761.8 31.4848L776.211 37.3537C775.729 38.4584 774.35 39.356 772.143 39.0108C771.522 39.9084 770.833 40.806 770.281 41.7036H784.693L790.071 34.73ZM764.006 102.533C802.069 102.809 800.069 126.768 787.52 123.039C782.348 116.066 771.522 107.849 763.317 103.43L764.006 102.533ZM769.178 46.6058C788.968 45.9844 780.417 60.622 772.35 54.9603C772.143 52.0604 770.281 48.8152 768.351 47.2272L769.178 46.6058Z" fill="#0D1F35"/>
<path d="M355.732 178.966C355.663 183.109 355.663 187.251 355.663 191.532V193.604C355.663 197.746 355.663 202.027 355.732 206.17L359.662 206.515V207.965H346.009V206.515L349.802 206.17C349.871 202.027 349.871 197.815 349.871 192.982H337.183C337.183 197.746 337.183 202.027 337.321 206.17L341.114 206.515V207.965H327.461V206.515L331.391 206.17C331.46 202.027 331.46 197.885 331.46 193.604V191.532C331.46 187.39 331.46 183.178 331.391 179.035L327.461 178.621V177.102H341.114V178.621L337.321 178.966C337.183 183.04 337.183 187.182 337.183 191.325H349.871C349.871 187.182 349.871 183.04 349.802 178.966L346.009 178.621V177.102H359.662V178.621L355.732 178.966Z" fill="#0D1F35"/>
<path d="M400.414 206.515V207.965H386.968V206.515L390.967 206.032L388.347 197.953H378.418L375.935 205.963L380.003 206.446V207.896H370.281V206.446L373.867 205.963L383.313 176.964H386.899L396.828 206.101L400.414 206.515ZM387.864 196.434L383.313 182.142L378.9 196.434H387.864Z" fill="#0D1F35"/>
<path d="M438.545 192.499C438.545 202.925 431.788 208.725 424.203 208.725C416.618 208.725 409.86 203.132 409.86 192.499C409.86 182.073 416.687 176.342 424.203 176.342C431.788 176.342 438.545 182.004 438.545 192.499ZM424.203 207.068C429.788 207.068 432.408 200.646 432.408 192.568C432.408 184.559 429.788 178.068 424.203 178.068C418.617 178.068 416.066 184.559 416.066 192.568C416.066 200.646 418.686 207.068 424.203 207.068Z" fill="#0D1F35"/>
<path d="M464.954 195.054C464.954 200.163 464.954 202.925 465.023 206.101L469.505 206.446V207.896H454.611V206.446L459.024 206.101C459.093 203.132 459.093 200.508 459.093 195.813L450.75 178.828L447.992 178.552V177.033H461.645V178.552L457.438 179.035L464.058 193.327L470.608 179.173L466.471 178.621V177.102H476.47V178.621L472.815 179.173L464.954 195.054Z" fill="#0D1F35"/>
<path d="M511.084 206.515V207.965H497.638V206.515L501.638 206.032L499.017 197.953H489.088L486.606 205.963L490.674 206.446V207.896H480.951V206.446L484.537 205.963L493.984 176.964H497.569L507.499 206.101L511.084 206.515ZM498.604 196.434L494.053 182.142L489.64 196.434H498.604Z" fill="#0D1F35"/>
<path d="M552.112 178.621L548.319 179.173L548.112 208.172H545.216L526.875 182.28L527.013 205.963L532.322 206.515V207.965H521.083V206.515L524.944 206.032L525.151 179.864L524.461 178.966L521.289 178.621V177.102H530.046L546.32 199.749L546.182 179.173L540.803 178.621V177.102H552.043V178.621H552.112Z" fill="#0D1F35"/>
<path d="M592.036 194.432L589.278 194.777C589.209 197.677 589.209 200.715 589.209 203.96V206.032C586.037 207.896 583.003 208.793 579.142 208.793C569.557 208.793 563.144 202.441 563.144 192.568C563.144 182.763 569.764 176.411 579.348 176.411C583.003 176.411 585.83 177.171 588.381 178.69L588.312 185.87H585.83L584.106 178.966C582.865 178.344 581.555 178.068 580.107 178.068C573.901 178.068 569.281 182.97 569.281 192.568C569.281 201.613 573.694 207.067 579.831 207.067C581.21 207.067 582.382 206.929 583.624 206.584V203.891C583.624 200.853 583.555 197.953 583.486 194.984L578.935 194.501V193.051H591.967V194.432H592.036Z" fill="#0D1F35"/>
<path d="M634.097 190.013C640.234 192.706 642.51 195.192 642.51 199.68C642.51 205.134 638.235 208.725 631.064 208.725C627.616 208.725 624.03 207.758 621.686 206.239L621.962 199.334H624.306L626.03 206.032C627.409 206.653 628.788 206.86 630.512 206.86C634.718 206.86 637.338 204.858 637.338 201.406C637.338 198.506 635.959 197.056 632.305 195.468L630.374 194.639C625.133 192.361 622.168 189.668 622.168 184.835C622.168 179.38 626.65 176.204 632.925 176.204C636.166 176.204 638.855 177.102 640.993 178.552L640.717 185.111H638.373L636.649 178.69C635.683 178.206 634.718 178.068 633.546 178.068C629.891 178.068 627.34 179.864 627.34 183.178C627.34 186.078 629.064 187.735 632.098 189.047L634.097 190.013Z" fill="#0D1F35"/>
<path d="M669.264 178.828C669.195 182.971 669.195 187.251 669.195 191.532V193.604C669.195 197.746 669.195 201.958 669.264 206.17L673.677 206.515V207.965H658.852V206.515L663.265 206.17C663.334 202.027 663.334 197.884 663.334 193.604V191.532C663.334 187.321 663.334 183.04 663.265 178.828H656.852L655.128 185.663H652.784L653.06 177.033H679.4L679.676 185.663H677.331L675.608 178.828H669.264Z" fill="#0D1F35"/>
<path d="M719.117 192.499C719.117 202.925 712.36 208.725 704.775 208.725C697.19 208.725 690.433 203.132 690.433 192.499C690.433 182.073 697.259 176.342 704.775 176.342C712.291 176.342 719.117 182.004 719.117 192.499ZM704.775 207.068C710.36 207.068 712.98 200.646 712.98 192.568C712.98 184.559 710.36 178.068 704.775 178.068C699.19 178.068 696.638 184.559 696.638 192.568C696.638 200.646 699.19 207.068 704.775 207.068Z" fill="#0D1F35"/>
<path d="M761.041 178.621L757.249 179.173L757.042 208.172H754.146L735.804 182.28L735.942 205.963L741.251 206.515V207.965H730.012V206.515L733.873 206.032L734.08 179.864L733.391 178.966L730.219 178.621V177.102H738.976L755.249 199.749L755.111 179.173L749.733 178.621V177.102H760.972V178.621H761.041Z" fill="#0D1F35"/>
<path d="M796.552 199.611L796.414 207.965H772.35V206.515L776.28 206.17C776.349 202.027 776.349 197.885 776.349 193.604V191.532C776.349 187.39 776.349 183.178 776.28 178.966L772.35 178.621V177.102H795.587L795.656 185.249H793.38L791.795 178.828H782.279C782.141 182.902 782.141 187.044 782.141 191.394H788.347L788.967 186.837H790.898V197.332H788.967L788.416 192.982H782.141C782.141 197.677 782.141 201.958 782.279 206.239H792.622L794.208 199.611H796.552Z" fill="#0D1F35"/>
<path d="M14.7561 197.401C14.7561 197.401 61.8514 159.426 118.669 171.164C161.765 180.071 195.07 218.322 247.681 202.649C247.681 202.649 231.753 224.053 193.898 223.086C143.01 221.843 117.359 175.721 50.9568 216.596L14.7561 197.401Z" fill="#2F4F75"/>
<path d="M153.56 224.26C153.56 224.26 107.43 194.432 61.231 226.193L81.8481 238.069C81.8481 238 101.638 214.939 153.56 224.26Z" fill="#2F4F75"/>
<path d="M109.843 64.2814L96.3281 17.1233L68.5398 25.5468L94.3974 70.4955C99.1552 67.8027 104.396 65.6623 109.843 64.2814Z" fill="url(#paint0_linear_203_358)"/>
<path d="M62.1962 125.801C62.1962 123.177 62.3341 120.622 62.6789 118.068L0 111.37L3.44768 140.3L62.8168 134.777C62.403 131.808 62.1962 128.839 62.1962 125.801Z" fill="url(#paint1_linear_203_358)"/>
<path d="M71.0222 93.4877L28.133 69.7361L14.4802 95.352L64.4716 108.885C65.9886 103.43 68.1951 98.2519 71.0222 93.4877Z" fill="url(#paint2_linear_203_358)"/>
<path d="M125.633 62.2791C128.254 62.2791 130.805 62.4172 133.356 62.7624L140.114 0L111.222 3.45228L116.738 62.9005C119.635 62.4862 122.6 62.2791 125.633 62.2791Z" fill="url(#paint3_linear_203_358)"/>
<path d="M189.071 125.801C189.071 128.425 188.933 130.979 188.588 133.534L251.267 140.232L247.819 111.302L188.45 116.825C188.864 119.794 189.071 122.763 189.071 125.801Z" fill="url(#paint4_linear_203_358)"/>
<path d="M187.14 109.99L234.235 96.4567L225.823 68.6313L180.934 94.5234C183.555 99.2876 185.692 104.535 187.14 109.99Z" fill="url(#paint5_linear_203_358)"/>
<path d="M86.6058 75.743L47.0264 26.6516L29.0295 49.5057L74.9527 87.6188C78.2624 83.1999 82.1928 79.1953 86.6058 75.743Z" fill="url(#paint6_linear_203_358)"/>
<path d="M181.624 28.1705L156.042 14.4995L142.527 64.5575C147.974 66.0765 153.146 68.286 157.904 71.1169L181.624 28.1705Z" fill="url(#paint7_linear_203_358)"/>
<path d="M175.625 86.7211L224.72 47.089L201.827 29.0681L163.765 75.0524C168.247 78.3666 172.177 82.3022 175.625 86.7211Z" fill="url(#paint8_linear_203_358)"/>
<path d="M180.865 158.321L225.754 184.214L234.167 156.388L187.071 142.855C185.692 148.31 183.555 153.488 180.865 158.321Z" fill="url(#paint9_linear_203_358)"/>
<path d="M96.4661 155.076C104.878 155.076 113.291 155.905 121.496 157.631C133.218 160.048 143.975 164.328 154.387 169.024C168.109 159.771 177.073 144.098 177.073 126.284C177.073 97.8376 154.042 74.8455 125.702 74.8455C97.3625 74.8455 74.332 97.9067 74.332 126.284C74.332 137.263 77.7797 147.412 83.5718 155.698C87.709 155.353 92.0531 155.076 96.4661 155.076Z" fill="url(#paint10_linear_203_358)"/>
<path d="M69.781 157.148C67.5056 153.005 65.7128 148.586 64.4716 143.891L14.4802 157.493L23.0994 173.65C34.8215 167.366 50.9567 160.531 69.781 157.148Z" fill="url(#paint11_linear_203_358)"/>
<path d="M206.999 191.463L175.694 166.124C172.798 169.783 169.557 173.097 165.971 176.066C179.693 182.694 192.932 188.978 206.999 191.463Z" fill="url(#paint12_linear_203_358)"/>
</g>
<defs>
<linearGradient id="paint0_linear_203_358" x1="68.5398" y1="17.1233" x2="109.843" y2="17.1233" gradientUnits="userSpaceOnUse">
<stop stop-color="#C28E21"/>
<stop offset="1" stop-color="#F1CA67"/>
</linearGradient>
<linearGradient id="paint1_linear_203_358" x1="0" y1="111.37" x2="62.8168" y2="111.37" gradientUnits="userSpaceOnUse">
<stop stop-color="#C28E21"/>
<stop offset="1" stop-color="#F1CA67"/>
</linearGradient>
<linearGradient id="paint2_linear_203_358" x1="14.4802" y1="69.7361" x2="71.0222" y2="69.7361" gradientUnits="userSpaceOnUse">
<stop stop-color="#C28E21"/>
<stop offset="1" stop-color="#F1CA67"/>
</linearGradient>
<linearGradient id="paint3_linear_203_358" x1="111.222" y1="0" x2="140.114" y2="-1.77109e-08" gradientUnits="userSpaceOnUse">
<stop stop-color="#C28E21"/>
<stop offset="1" stop-color="#F1CA67"/>
</linearGradient>
<linearGradient id="paint4_linear_203_358" x1="188.45" y1="111.302" x2="251.267" y2="111.302" gradientUnits="userSpaceOnUse">
<stop stop-color="#C28E21"/>
<stop offset="1" stop-color="#F1CA67"/>
</linearGradient>
<linearGradient id="paint5_linear_203_358" x1="180.934" y1="68.6313" x2="234.235" y2="68.6313" gradientUnits="userSpaceOnUse">
<stop stop-color="#C28E21"/>
<stop offset="1" stop-color="#F1CA67"/>
</linearGradient>
<linearGradient id="paint6_linear_203_358" x1="29.0295" y1="26.6516" x2="86.6058" y2="26.6516" gradientUnits="userSpaceOnUse">
<stop stop-color="#C28E21"/>
<stop offset="1" stop-color="#F1CA67"/>
</linearGradient>
<linearGradient id="paint7_linear_203_358" x1="142.527" y1="14.4995" x2="181.624" y2="14.4995" gradientUnits="userSpaceOnUse">
<stop stop-color="#C28E21"/>
<stop offset="1" stop-color="#F1CA67"/>
</linearGradient>
<linearGradient id="paint8_linear_203_358" x1="163.765" y1="29.0681" x2="224.72" y2="29.0681" gradientUnits="userSpaceOnUse">
<stop stop-color="#C28E21"/>
<stop offset="1" stop-color="#F1CA67"/>
</linearGradient>
<linearGradient id="paint9_linear_203_358" x1="180.865" y1="142.855" x2="234.167" y2="142.855" gradientUnits="userSpaceOnUse">
<stop stop-color="#C28E21"/>
<stop offset="1" stop-color="#F1CA67"/>
</linearGradient>
<linearGradient id="paint10_linear_203_358" x1="74.332" y1="74.8455" x2="177.073" y2="74.8455" gradientUnits="userSpaceOnUse">
<stop stop-color="#C28E21"/>
<stop offset="1" stop-color="#F1CA67"/>
</linearGradient>
<linearGradient id="paint11_linear_203_358" x1="14.4802" y1="143.891" x2="69.781" y2="143.891" gradientUnits="userSpaceOnUse">
<stop stop-color="#C28E21"/>
<stop offset="1" stop-color="#F1CA67"/>
</linearGradient>
<linearGradient id="paint12_linear_203_358" x1="165.971" y1="166.124" x2="206.999" y2="166.124" gradientUnits="userSpaceOnUse">
<stop stop-color="#C28E21"/>
<stop offset="1" stop-color="#F1CA67"/>
</linearGradient>
<clipPath id="clip0_203_358">
<rect width="800" height="238" fill="white"/>
</clipPath>
</defs>
</svg>
