<svg width="807" height="240" viewBox="0 0 807 240" fill="none" xmlns="http://www.w3.org/2000/svg">
<g clip-path="url(#clip0_203_321)">
<path d="M407.256 93.4378C406.561 94.343 405.587 94.6215 403.431 93.9252C398.214 95.5962 390.841 97.3369 383.398 98.6598C390.215 106.667 402.596 110.287 414.977 111.889V113.003C410.664 114.326 407.952 118.085 406.769 123.725C394.319 118.712 385.763 111.471 381.103 99.0775C379.503 99.356 377.903 99.5649 376.373 99.7738C380.894 108.686 380.268 118.433 376.79 122.82C374.704 125.744 369.974 126.649 363.435 126.649C363.366 123.655 362.601 121.706 361.349 120.244C360.236 119.269 357.245 118.016 354.045 117.319V115.997C357.384 116.275 363.366 116.623 365.383 116.623C366.496 116.623 367.191 116.554 367.678 115.788C368.582 114.395 369.069 111.68 369.069 108.268C356.549 114.465 339.716 119.896 324.205 122.402L323.579 120.801C339.508 116.205 357.314 107.433 367.748 98.5205L367.261 96.9887C356.34 102.489 340.412 107.293 326.222 109.243L325.735 107.572C339.577 104.16 355.297 96.8495 363.783 89.6084L363.574 89.1907C353.628 93.0897 341.247 95.8051 328.796 97.1976L328.17 95.8051C338.673 93.0897 348.689 88.9122 356.132 84.4561H341.734L340.899 81.6711H380.338L385.554 75.1263H338.186C338.882 82.0192 336.099 86.8234 332.343 88.4944C328.935 90.0958 324.553 88.9121 323.51 85.0827C322.536 81.3926 324.901 78.7468 328.1 77.4935C331.509 75.9618 334.917 71.7842 334.5 66.98L335.821 66.9104C336.656 68.7903 337.212 70.6006 337.63 72.3412H400.161L406.074 66.4927L416.09 76.2403C415.255 77.0758 414.281 77.215 412.195 77.3543C408.786 79.7912 402.596 83.0636 398.353 84.8739L397.379 84.2472C398.283 81.8103 399.466 78.2594 400.509 75.1959H386.667C388.337 76.5188 393.206 80.2089 396.405 82.9243C396.127 84.0383 395.084 84.5257 393.693 84.5257H373.452C371.226 85.8486 368.93 87.0323 366.357 88.2159C370.252 90.9313 373.243 94.343 375.399 97.9635C382.842 94.0645 391.606 88.4248 396.266 84.5954L407.256 93.4378ZM324.831 43.9339H366.983L366.704 43.725C366.078 39.6867 363.227 35.3699 360.723 33.2115L361.418 32.5849C379.016 31.4709 379.781 40.5919 374.843 43.9339H396.753L403.152 35.4396C403.152 35.4396 410.456 41.2881 414.838 45.2568C414.56 46.3708 413.516 46.8582 412.056 46.8582H325.666L324.831 43.9339ZM385.207 69.7651V66.5623H353.767V67.4674C353.767 68.4422 348.481 70.8791 343.751 70.8791H342.22V48.0418L354.462 52.7764H384.302L389.519 47.3456L400.37 55.2829C399.883 55.9792 398.77 56.6754 397.031 57.0932V67.1193C396.962 67.8155 390.91 69.8347 387.293 69.8347H385.207V69.7651ZM385.207 63.638V55.5614H353.767V63.7076H385.207V63.638Z" fill="url(#paint0_linear_203_321)"/>
<path d="M537.536 82.2976L547.483 90.5135C546.648 91.4186 545.466 91.906 543.379 92.1845C541.71 110.426 538.441 119.826 533.293 123.586C530.163 125.814 526.407 126.789 521.747 126.719C521.747 123.725 521.469 121.218 520.217 119.687C519.034 118.155 516.808 117.111 513.4 116.345L513.47 114.952C516.252 115.161 521.051 115.44 523.069 115.44C524.599 115.44 525.503 115.231 526.407 114.604C528.981 112.585 531.485 104.508 532.807 90.4439H530.233C523.834 107.015 511.174 118.99 491.072 126.719L490.099 125.187C504.705 116.971 514.165 104.856 519.034 90.3742H516.043C509.018 102.628 496.915 112.097 481.96 118.782L480.987 117.25C491.629 110.357 500.323 100.609 505.61 90.3742H502.271C496.846 96.0139 489.959 100.47 481.752 104.091L481.543 103.673C479.456 105.274 476.465 106.11 472.501 106.179C472.501 103.255 472.083 99.0775 471.318 97.7546C470.692 96.6406 469.231 95.8747 467.284 95.3177V123.098C467.284 123.934 463.876 126.58 458.589 126.58H456.711V35.3003L468.605 39.8956H475.213L481.056 34.2559L491.768 44.4909C490.933 45.396 489.542 45.6745 487.386 45.6745C483.978 51.6623 477.857 61.6188 472.988 67.6066C482.169 74.1514 486.342 83.342 486.342 91.1401C486.342 94.3429 485.925 97.0583 485.021 99.356C490.933 93.8555 495.454 86.8929 498.376 79.7215H485.786L484.951 76.7972H531.694L537.328 69.0688C537.328 69.0688 543.936 74.3603 547.831 78.1201C547.553 79.2341 546.509 79.7215 545.118 79.7215H510.131C508.601 82.5065 506.931 85.1523 504.845 87.6588H532.111L537.536 82.2976ZM471.805 94.2733C472.779 94.2733 473.405 94.2037 474.1 93.7859C475.213 93.0896 475.909 91.2794 475.909 88.2855C475.909 81.7406 474.587 74.4299 470.414 68.0244C472.222 61.6884 474.587 50.4787 476.048 42.7502H467.353V94.2733H471.805ZM502.967 70.9487C502.967 71.7842 499.628 73.5248 494.342 73.5248H492.533V34.8129L503.94 39.1993H525.294L530.372 33.49L540.319 40.9399C539.623 41.8451 538.719 42.4717 536.632 42.8198V69.4169C536.632 69.8346 533.015 71.8538 527.59 71.8538H525.712V68.0244H502.967V70.9487ZM502.967 42.1236V52.2193H525.712V42.1236H502.967ZM525.712 65.1001V55.1436H502.967V65.1001H525.712Z" fill="url(#paint1_linear_203_321)"/>
<path d="M619.683 75.2654C618.988 76.3794 618.083 76.6579 615.857 76.9364C614.327 87.1714 611.823 96.919 606.815 105.622C617.736 111.54 632.69 112.863 653.418 112.863C658.635 112.863 670.738 112.863 677.068 112.794V113.977C672.477 114.952 670.251 119.06 669.973 123.795H652.514C629.282 123.795 613.562 121.358 602.503 111.68C597.773 117.528 591.513 122.681 582.887 126.649L582.192 125.466C589.217 120.244 594.225 113.768 597.494 106.388C592.904 100.261 589.287 92.0452 586.504 81.3925L587.617 80.7659C590.817 89.6083 594.851 95.8746 599.929 100.609C602.711 92.8111 604.102 84.2471 604.937 75.4743H598.955L595.477 79.0948L585.67 72.7589C586.574 71.9234 587.896 71.1575 589.287 70.6701C592.904 63.986 597.912 52.8459 600.624 45.8137H584L583.096 42.8894H600.555L605.563 37.8764L615.579 46.9277C614.745 47.8329 613.145 48.3202 611.267 48.5291C608.554 54.7258 603.476 65.5874 599.859 72.6196H604.241L609.736 66.9103L619.683 75.2654ZM670.251 49.0165C670.251 49.0165 675.746 54.5169 678.598 58.0679C678.32 59.1819 677.276 59.6692 676.024 59.6692H664.826V73.5248C664.756 74.3603 659.331 76.2402 655.714 76.2402H654.044V72.8285H645.141V83.0635H654.531L660.165 75.6135C660.165 75.6135 666.704 80.6266 670.46 84.2471C670.181 85.3612 669.277 85.8485 667.747 85.8485H645.002V96.2924H657.035L663.365 88.3551C663.365 88.3551 670.599 93.6466 674.981 97.5457C674.703 98.6597 673.59 99.147 672.199 99.147H645.071V108.477C645.071 109.382 640.481 111.471 636.029 111.471H633.803V99.147H613.353L612.519 96.2228H633.734V85.7789H617.875L617.04 82.9939H633.664V72.7589H619.057L618.153 69.8346H633.664V59.6692H611.614L610.78 56.745H633.595V46.6492H617.944L617.04 43.8642H633.595V32.7937L648.549 34.1862C648.341 35.718 647.575 36.6927 644.863 37.1105V43.7946H652.792L657.8 38.3638L668.512 46.3707C667.886 47.067 666.495 47.9721 664.617 48.3899V56.745H665.312L670.251 49.0165ZM645.002 56.745H653.905V46.6492H645.002V56.745ZM653.905 59.6692H645.002V69.9042H653.905V59.6692Z" fill="url(#paint2_linear_203_321)"/>
<path d="M736.052 44.9086C729.444 52.0104 721.445 56.745 713.724 59.7389L712.611 58.6249C719.219 52.7067 725.966 42.7502 729.722 31.6797L744.538 37.5283C744.051 38.7119 742.729 39.5474 740.504 39.3385C739.808 40.3133 739.113 41.2184 738.417 42.1236H749.059L754.067 35.3002C754.067 35.3002 759.771 40.0348 763.179 43.3072C762.901 44.4212 761.997 44.9086 760.606 44.9086H736.052ZM713.655 123.029C723.74 117.389 733.757 108.059 738.626 100.679L751.424 108.825C750.937 109.73 749.894 110.218 747.599 109.73C740.156 115.927 727.497 121.636 714.42 124.282L713.655 123.029ZM739.739 63.7772V79.7911C744.329 79.1645 749.129 78.6075 754.067 77.9112L754.137 79.3037C747.32 82.4369 737.304 86.5448 722.975 91.6275C722.349 92.9504 721.376 93.7162 720.263 94.0644L715.324 82.5065C718.245 82.2976 723.114 81.8102 728.957 81.114V63.7772H717.967L717.133 60.8529H739.46L743.077 56.3272C742.799 56.2576 742.59 56.0487 742.243 55.9095C741.408 52.7763 738.765 49.0861 736.33 47.2759L737.165 46.5796C752.815 45.1871 752.189 54.9347 746.903 56.5361C748.92 58.1375 751.494 60.3655 753.441 62.1758C753.163 63.2898 752.259 63.7772 750.868 63.7772H739.739ZM794.271 88.2158C794.271 88.2158 801.575 94.134 805.887 98.033C805.609 99.1471 804.496 99.6344 803.174 99.6344H766.24V123.586C766.24 124.491 760.814 126.51 755.945 126.51H753.859V99.6344H717.411L716.576 96.7101H753.859V88.5639L769.996 89.9564C769.787 91.2793 769.022 92.3933 766.309 92.7415V96.6405H787.872L794.271 88.2158ZM803.244 78.1201C805.331 79.0948 805.818 80.1392 805.818 81.8102C805.818 85.2219 802.618 87.3107 795.315 87.3107H791.628C785.437 87.3107 784.742 85.2915 784.742 79.7911V63.0809H773.335V67.2584C773.335 68.9295 773.126 70.7397 772.5 72.7589C782.516 77.0757 781.195 85.7789 774.517 84.6649C772.987 83.0635 770.83 81.3229 768.326 79.6518C764.501 83.5509 757.893 87.1714 746.625 89.6083L745.929 88.4247C755.041 84.5953 759.423 80.0696 761.44 75.6832C758.519 74.0818 755.598 72.7589 753.024 71.8537L753.719 70.6701C757.128 70.3916 760.258 70.3916 762.901 70.6005C762.971 69.4865 763.11 68.3725 763.11 67.2584V63.0809H755.667L754.763 60.2959H783.838L788.359 55.4917L796.845 62.5239C796.219 63.2202 795.245 63.7075 793.506 64.0557V77.4934C793.506 78.4682 793.715 78.8163 794.689 78.8163H796.288H797.68C798.166 78.8163 798.653 78.7467 799.001 78.1201C799.627 77.2149 800.67 74.221 801.714 71.0182H802.896L803.244 78.1201ZM796.984 35.0217C796.984 35.0217 803.314 39.8259 807 43.3768C806.722 44.4908 805.818 44.9782 804.427 44.9782H774.587C769.648 50.4786 763.875 54.5169 757.962 57.0931L756.78 56.188C761.51 50.4786 765.962 41.3577 768.466 31.7493L783.003 37.6675C782.516 38.7815 781.125 39.6866 778.899 39.3385C778.273 40.2437 777.578 41.1488 777.021 42.0539H791.558L796.984 35.0217ZM770.691 103.394C809.087 103.673 807.07 127.833 794.41 124.073C789.194 117.041 778.273 108.755 769.996 104.299L770.691 103.394ZM775.908 46.9974C795.871 46.3707 787.246 61.1314 779.108 55.4221C778.899 52.4978 777.021 49.2254 775.074 47.624L775.908 46.9974Z" fill="url(#paint3_linear_203_321)"/>
<path d="M358.845 180.47C358.775 184.648 358.775 188.825 358.775 193.142V195.231C358.775 199.408 358.775 203.725 358.845 207.903L362.809 208.251V209.713H349.037V208.251L352.863 207.903C352.932 203.725 352.932 199.478 352.932 194.604H340.134C340.134 199.408 340.134 203.725 340.273 207.903L344.098 208.251V209.713H330.326V208.251L334.291 207.903C334.36 203.725 334.36 199.547 334.36 195.231V193.142C334.36 188.964 334.36 184.717 334.291 180.54L330.326 180.122V178.59H344.098V180.122L340.273 180.47C340.134 184.578 340.134 188.755 340.134 192.933H352.932C352.932 188.755 352.932 184.578 352.863 180.47L349.037 180.122V178.59H362.809V180.122L358.845 180.47Z" fill="url(#paint4_linear_203_321)"/>
<path d="M403.917 208.251V209.713H390.354V208.251L394.388 207.763L391.745 199.617H381.729L379.225 207.694L383.329 208.181V209.643H373.521V208.181L377.138 207.694L386.667 178.451H390.284L400.3 207.833L403.917 208.251ZM391.258 198.085L386.667 183.673L382.216 198.085H391.258Z" fill="url(#paint5_linear_203_321)"/>
<path d="M442.382 194.117C442.382 204.63 435.566 210.479 427.915 210.479C420.263 210.479 413.447 204.839 413.447 194.117C413.447 183.603 420.333 177.824 427.915 177.824C435.566 177.824 442.382 183.534 442.382 194.117ZM427.915 208.808C433.549 208.808 436.192 202.332 436.192 194.186C436.192 186.11 433.549 179.565 427.915 179.565C422.281 179.565 419.707 186.11 419.707 194.186C419.707 202.332 422.35 208.808 427.915 208.808Z" fill="url(#paint6_linear_203_321)"/>
<path d="M469.023 196.693C469.023 201.845 469.023 204.63 469.092 207.833L473.614 208.181V209.643H458.589V208.181L463.041 207.833C463.111 204.839 463.111 202.193 463.111 197.459L454.694 180.331L451.912 180.052V178.521H465.684V180.052L461.441 180.54L468.119 194.952L474.727 180.679L470.553 180.122V178.59H480.639V180.122L476.952 180.679L469.023 196.693Z" fill="url(#paint7_linear_203_321)"/>
<path d="M515.556 208.251V209.713H501.993V208.251L506.027 207.763L503.384 199.617H493.368L490.864 207.694L494.967 208.181V209.643H485.16V208.181L488.777 207.694L498.306 178.451H501.923L511.939 207.833L515.556 208.251ZM502.966 198.085L498.376 183.673L493.924 198.085H502.966Z" fill="url(#paint8_linear_203_321)"/>
<path d="M556.943 180.122L553.117 180.679L552.908 209.922H549.987L531.485 183.812L531.624 207.694L536.98 208.251V209.713H525.642V208.251L529.537 207.763L529.746 181.375L529.05 180.47L525.851 180.122V178.59H534.684L551.1 201.427L550.961 180.679L545.535 180.122V178.59H556.873V180.122H556.943Z" fill="url(#paint9_linear_203_321)"/>
<path d="M597.216 196.066L594.434 196.414C594.365 199.339 594.365 202.402 594.365 205.675V207.763C591.165 209.643 588.104 210.549 584.209 210.549C574.541 210.549 568.072 204.143 568.072 194.186C568.072 184.3 574.749 177.894 584.418 177.894C588.104 177.894 590.956 178.66 593.53 180.192L593.46 187.433H590.956L589.217 180.47C587.965 179.844 586.644 179.565 585.183 179.565C578.923 179.565 574.263 184.508 574.263 194.186C574.263 203.307 578.714 208.808 584.905 208.808C586.296 208.808 587.478 208.669 588.73 208.321V205.605C588.73 202.542 588.661 199.617 588.591 196.623L584.001 196.136V194.674H597.147V196.066H597.216Z" fill="url(#paint10_linear_203_321)"/>
<path d="M639.646 191.61C645.837 194.326 648.132 196.832 648.132 201.358C648.132 206.858 643.819 210.479 636.586 210.479C633.108 210.479 629.491 209.504 627.126 207.972L627.404 201.01H629.769L631.508 207.763C632.899 208.39 634.29 208.599 636.029 208.599C640.272 208.599 642.915 206.58 642.915 203.098C642.915 200.174 641.524 198.712 637.838 197.111L635.89 196.275C630.604 193.977 627.613 191.262 627.613 186.388C627.613 180.888 632.134 177.685 638.464 177.685C641.733 177.685 644.445 178.59 646.602 180.052L646.323 186.667H643.959L642.22 180.192C641.246 179.704 640.272 179.565 639.09 179.565C635.403 179.565 632.829 181.375 632.829 184.717C632.829 187.642 634.568 189.313 637.629 190.635L639.646 191.61Z" fill="url(#paint11_linear_203_321)"/>
<path d="M675.12 180.331C675.051 184.508 675.051 188.825 675.051 193.142V195.231C675.051 199.408 675.051 203.655 675.12 207.903L679.572 208.251V209.713H664.617V208.251L669.069 207.903C669.138 203.725 669.138 199.547 669.138 195.231V193.142C669.138 188.895 669.138 184.578 669.069 180.331H662.6L660.861 187.224H658.496L658.774 178.521H685.345L685.623 187.224H683.258L681.519 180.331H675.12Z" fill="url(#paint12_linear_203_321)"/>
<path d="M725.41 194.117C725.41 204.63 718.593 210.479 710.942 210.479C703.291 210.479 696.474 204.839 696.474 194.117C696.474 183.603 703.36 177.824 710.942 177.824C718.524 177.824 725.41 183.534 725.41 194.117ZM710.942 208.808C716.576 208.808 719.219 202.332 719.219 194.186C719.219 186.11 716.576 179.565 710.942 179.565C705.308 179.565 702.734 186.11 702.734 194.186C702.734 202.332 705.308 208.808 710.942 208.808Z" fill="url(#paint13_linear_203_321)"/>
<path d="M767.7 180.122L763.875 180.679L763.666 209.922H760.745L742.242 183.812L742.382 207.694L747.737 208.251V209.713H736.4V208.251L740.295 207.763L740.504 181.375L739.808 180.47L736.608 180.122V178.59H745.442L761.858 201.427L761.718 180.679L756.293 180.122V178.59H767.631V180.122H767.7Z" fill="url(#paint14_linear_203_321)"/>
<path d="M803.522 201.288L803.383 209.713H779.108V208.251L783.072 207.903C783.142 203.725 783.142 199.547 783.142 195.231V193.142C783.142 188.964 783.142 184.717 783.072 180.47L779.108 180.122V178.59H802.548L802.618 186.806H800.323L798.723 180.331H789.124C788.985 184.439 788.985 188.616 788.985 193.003H795.245L795.871 188.407H797.819V198.99H795.871L795.314 194.604H788.985C788.985 199.339 788.985 203.655 789.124 207.972H799.557L801.157 201.288H803.522Z" fill="url(#paint15_linear_203_321)"/>
<path d="M14.8853 199.06C14.8853 199.06 62.3927 160.766 119.708 172.602C163.181 181.584 196.777 220.157 249.849 204.352C249.849 204.352 233.781 225.936 195.594 224.961C144.261 223.708 118.386 177.198 51.4027 218.416L14.8853 199.06Z" fill="url(#paint16_linear_203_321)"/>
<path d="M154.903 226.145C154.903 226.145 108.37 196.066 61.7666 228.094L82.5641 240.07C82.5641 240 102.527 216.745 154.903 226.145Z" fill="url(#paint17_linear_203_321)"/>
<path d="M110.804 64.8215L97.1711 17.2671L69.1396 25.7614L95.2235 71.0878C100.023 68.3724 105.309 66.214 110.804 64.8215Z" fill="url(#paint18_linear_203_321)"/>
<path d="M62.7404 126.858C62.7404 124.212 62.8795 121.636 63.2273 119.06L0 112.306L3.47785 141.48L63.3664 135.91C62.9491 132.916 62.7404 129.922 62.7404 126.858Z" fill="url(#paint19_linear_203_321)"/>
<path d="M71.6437 94.2733L28.3792 70.322L14.6069 96.1532L65.0357 109.8C66.566 104.299 68.7918 99.0775 71.6437 94.2733Z" fill="url(#paint20_linear_203_321)"/>
<path d="M126.733 62.8024C129.376 62.8024 131.95 62.9417 134.523 63.2898L141.34 0L112.195 3.48129L117.76 63.4291C120.681 63.0113 123.672 62.8024 126.733 62.8024Z" fill="url(#paint21_linear_203_321)"/>
<path d="M190.725 126.858C190.725 129.504 190.586 132.08 190.238 134.656L253.466 141.41L249.988 112.237L190.099 117.807C190.516 120.801 190.725 123.795 190.725 126.858Z" fill="url(#paint22_linear_203_321)"/>
<path d="M188.778 110.914L236.285 97.2672L227.799 69.208L182.517 95.3177C185.161 100.122 187.317 105.413 188.778 110.914Z" fill="url(#paint23_linear_203_321)"/>
<path d="M87.3635 76.3794L47.4378 26.8755L29.2834 49.9216L75.6084 88.355C78.9471 83.899 82.9119 79.8607 87.3635 76.3794Z" fill="url(#paint24_linear_203_321)"/>
<path d="M183.213 28.4072L157.407 14.6213L143.774 65.1C149.269 66.6318 154.486 68.8598 159.286 71.7145L183.213 28.4072Z" fill="url(#paint25_linear_203_321)"/>
<path d="M177.162 87.45L226.686 47.4848L203.593 29.3125L165.198 75.6833C169.719 79.0253 173.684 82.994 177.162 87.45Z" fill="url(#paint26_linear_203_321)"/>
<path d="M182.448 159.652L227.73 185.761L236.216 157.702L188.708 144.056C187.317 149.556 185.161 154.778 182.448 159.652Z" fill="url(#paint27_linear_203_321)"/>
<path d="M97.3102 156.38C105.796 156.38 114.282 157.215 122.559 158.956C134.384 161.393 145.235 165.709 155.738 170.444C169.58 161.114 178.622 145.309 178.622 127.346C178.622 98.6597 155.39 75.4744 126.802 75.4744C98.2145 75.4744 74.9824 98.7294 74.9824 127.346C74.9824 138.416 78.4603 148.651 84.3031 157.006C88.4765 156.658 92.8586 156.38 97.3102 156.38Z" fill="url(#paint28_linear_203_321)"/>
<path d="M70.3916 158.468C68.0962 154.291 66.2878 149.835 65.0357 145.1L14.6069 158.816L23.3016 175.109C35.1262 168.773 51.4026 161.88 70.3916 158.468Z" fill="url(#paint29_linear_203_321)"/>
<path d="M208.81 193.072L177.231 167.52C174.31 171.21 171.041 174.552 167.424 177.546C181.265 184.23 194.62 190.566 208.81 193.072Z" fill="url(#paint30_linear_203_321)"/>
</g>
<defs>
<linearGradient id="paint0_linear_203_321" x1="323.288" y1="32.4912" x2="416.09" y2="32.4912" gradientUnits="userSpaceOnUse">
<stop stop-color="#C28E21"/>
<stop offset="1" stop-color="#F1CA67"/>
</linearGradient>
<linearGradient id="paint1_linear_203_321" x1="456.711" y1="33.49" x2="547.831" y2="33.49" gradientUnits="userSpaceOnUse">
<stop stop-color="#C28E21"/>
<stop offset="1" stop-color="#F1CA67"/>
</linearGradient>
<linearGradient id="paint2_linear_203_321" x1="582.192" y1="32.7937" x2="678.598" y2="32.7937" gradientUnits="userSpaceOnUse">
<stop stop-color="#C28E21"/>
<stop offset="1" stop-color="#F1CA67"/>
</linearGradient>
<linearGradient id="paint3_linear_203_321" x1="712.611" y1="31.6797" x2="807" y2="31.6797" gradientUnits="userSpaceOnUse">
<stop stop-color="#C28E21"/>
<stop offset="1" stop-color="#F1CA67"/>
</linearGradient>
<linearGradient id="paint4_linear_203_321" x1="330.326" y1="178.59" x2="362.809" y2="178.59" gradientUnits="userSpaceOnUse">
<stop stop-color="#C28E21"/>
<stop offset="1" stop-color="#F1CA67"/>
</linearGradient>
<linearGradient id="paint5_linear_203_321" x1="373.521" y1="178.451" x2="403.917" y2="178.451" gradientUnits="userSpaceOnUse">
<stop stop-color="#C28E21"/>
<stop offset="1" stop-color="#F1CA67"/>
</linearGradient>
<linearGradient id="paint6_linear_203_321" x1="413.447" y1="177.824" x2="442.382" y2="177.824" gradientUnits="userSpaceOnUse">
<stop stop-color="#C28E21"/>
<stop offset="1" stop-color="#F1CA67"/>
</linearGradient>
<linearGradient id="paint7_linear_203_321" x1="451.912" y1="178.521" x2="480.639" y2="178.521" gradientUnits="userSpaceOnUse">
<stop stop-color="#C28E21"/>
<stop offset="1" stop-color="#F1CA67"/>
</linearGradient>
<linearGradient id="paint8_linear_203_321" x1="485.16" y1="178.451" x2="515.556" y2="178.451" gradientUnits="userSpaceOnUse">
<stop stop-color="#C28E21"/>
<stop offset="1" stop-color="#F1CA67"/>
</linearGradient>
<linearGradient id="paint9_linear_203_321" x1="525.642" y1="178.59" x2="556.943" y2="178.59" gradientUnits="userSpaceOnUse">
<stop stop-color="#C28E21"/>
<stop offset="1" stop-color="#F1CA67"/>
</linearGradient>
<linearGradient id="paint10_linear_203_321" x1="568.072" y1="177.894" x2="597.216" y2="177.894" gradientUnits="userSpaceOnUse">
<stop stop-color="#C28E21"/>
<stop offset="1" stop-color="#F1CA67"/>
</linearGradient>
<linearGradient id="paint11_linear_203_321" x1="627.126" y1="177.685" x2="648.132" y2="177.685" gradientUnits="userSpaceOnUse">
<stop stop-color="#C28E21"/>
<stop offset="1" stop-color="#F1CA67"/>
</linearGradient>
<linearGradient id="paint12_linear_203_321" x1="658.496" y1="178.521" x2="685.623" y2="178.521" gradientUnits="userSpaceOnUse">
<stop stop-color="#C28E21"/>
<stop offset="1" stop-color="#F1CA67"/>
</linearGradient>
<linearGradient id="paint13_linear_203_321" x1="696.474" y1="177.824" x2="725.41" y2="177.824" gradientUnits="userSpaceOnUse">
<stop stop-color="#C28E21"/>
<stop offset="1" stop-color="#F1CA67"/>
</linearGradient>
<linearGradient id="paint14_linear_203_321" x1="736.4" y1="178.59" x2="767.7" y2="178.59" gradientUnits="userSpaceOnUse">
<stop stop-color="#C28E21"/>
<stop offset="1" stop-color="#F1CA67"/>
</linearGradient>
<linearGradient id="paint15_linear_203_321" x1="779.108" y1="178.59" x2="803.522" y2="178.59" gradientUnits="userSpaceOnUse">
<stop stop-color="#C28E21"/>
<stop offset="1" stop-color="#F1CA67"/>
</linearGradient>
<linearGradient id="paint16_linear_203_321" x1="14.8853" y1="170.332" x2="249.849" y2="170.332" gradientUnits="userSpaceOnUse">
<stop stop-color="#C28E21"/>
<stop offset="1" stop-color="#F1CA67"/>
</linearGradient>
<linearGradient id="paint17_linear_203_321" x1="61.7666" y1="213.336" x2="154.903" y2="213.336" gradientUnits="userSpaceOnUse">
<stop stop-color="#C28E21"/>
<stop offset="1" stop-color="#F1CA67"/>
</linearGradient>
<linearGradient id="paint18_linear_203_321" x1="69.1396" y1="17.2671" x2="110.804" y2="17.2671" gradientUnits="userSpaceOnUse">
<stop stop-color="#C28E21"/>
<stop offset="1" stop-color="#F1CA67"/>
</linearGradient>
<linearGradient id="paint19_linear_203_321" x1="0" y1="112.306" x2="63.3664" y2="112.306" gradientUnits="userSpaceOnUse">
<stop stop-color="#C28E21"/>
<stop offset="1" stop-color="#F1CA67"/>
</linearGradient>
<linearGradient id="paint20_linear_203_321" x1="14.6069" y1="70.322" x2="71.6437" y2="70.322" gradientUnits="userSpaceOnUse">
<stop stop-color="#C28E21"/>
<stop offset="1" stop-color="#F1CA67"/>
</linearGradient>
<linearGradient id="paint21_linear_203_321" x1="112.195" y1="0" x2="141.34" y2="-1.7872e-08" gradientUnits="userSpaceOnUse">
<stop stop-color="#C28E21"/>
<stop offset="1" stop-color="#F1CA67"/>
</linearGradient>
<linearGradient id="paint22_linear_203_321" x1="190.099" y1="112.237" x2="253.466" y2="112.237" gradientUnits="userSpaceOnUse">
<stop stop-color="#C28E21"/>
<stop offset="1" stop-color="#F1CA67"/>
</linearGradient>
<linearGradient id="paint23_linear_203_321" x1="182.517" y1="69.208" x2="236.285" y2="69.208" gradientUnits="userSpaceOnUse">
<stop stop-color="#C28E21"/>
<stop offset="1" stop-color="#F1CA67"/>
</linearGradient>
<linearGradient id="paint24_linear_203_321" x1="29.2834" y1="26.8755" x2="87.3635" y2="26.8755" gradientUnits="userSpaceOnUse">
<stop stop-color="#C28E21"/>
<stop offset="1" stop-color="#F1CA67"/>
</linearGradient>
<linearGradient id="paint25_linear_203_321" x1="143.774" y1="14.6213" x2="183.213" y2="14.6213" gradientUnits="userSpaceOnUse">
<stop stop-color="#C28E21"/>
<stop offset="1" stop-color="#F1CA67"/>
</linearGradient>
<linearGradient id="paint26_linear_203_321" x1="165.198" y1="29.3125" x2="226.686" y2="29.3125" gradientUnits="userSpaceOnUse">
<stop stop-color="#C28E21"/>
<stop offset="1" stop-color="#F1CA67"/>
</linearGradient>
<linearGradient id="paint27_linear_203_321" x1="182.448" y1="144.056" x2="236.216" y2="144.056" gradientUnits="userSpaceOnUse">
<stop stop-color="#C28E21"/>
<stop offset="1" stop-color="#F1CA67"/>
</linearGradient>
<linearGradient id="paint28_linear_203_321" x1="74.9824" y1="75.4744" x2="178.622" y2="75.4744" gradientUnits="userSpaceOnUse">
<stop stop-color="#C28E21"/>
<stop offset="1" stop-color="#F1CA67"/>
</linearGradient>
<linearGradient id="paint29_linear_203_321" x1="14.6069" y1="145.1" x2="70.3916" y2="145.1" gradientUnits="userSpaceOnUse">
<stop stop-color="#C28E21"/>
<stop offset="1" stop-color="#F1CA67"/>
</linearGradient>
<linearGradient id="paint30_linear_203_321" x1="167.424" y1="167.52" x2="208.81" y2="167.52" gradientUnits="userSpaceOnUse">
<stop stop-color="#C28E21"/>
<stop offset="1" stop-color="#F1CA67"/>
</linearGradient>
<clipPath id="clip0_203_321">
<rect width="807" height="240" fill="white"/>
</clipPath>
</defs>
</svg>
